<svg xmlns="http://www.w3.org/2000/svg" viewBox="0 0 7979 1820" width="240">
  <rect x="0" y="0" width="100%" height="100%" fill="#fff" />
  <path fill="#ec512a" d="M399 1798c-78-27-117-48-183-98a501 501 0 01-198-310 424 424 0 0137-329l25-52-26-72c-22-60-26-90-26-173 0-68 5-113 16-140 21-54 58-127 71-141l35-40c49-59 128-116 287-209l102-66C648 97 764 29 779 29c6 0 34-7 61-16C877 0 912-2 977 1c178 11 319 82 419 211a499 499 0 01120 308c6 93-7 157-55 252l-23 48 21 43a507 507 0 01-125 558 3913 3913 0 01-375 246c0 6-45 35-143 90a584 584 0 01-417 41zm241-198c30-10 83-37 119-59l110-68c90-55 276-178 313-208 23-18 50-55 67-92 94-197-41-424-266-449-88-10-138 7-278 90-69 41-137 75-151 75-33 0-95-65-95-100 0-15 8-38 19-51 16-21 163-119 399-266 86-54 131-57 173-12 16 17 29 39 29 49 0 29 11 50 27 50 20 0 95 35 140 66l38 26 11-62c29-157-65-308-227-365-89-30-193-15-282 42l-59 38-154 95-121 77c-54 34-112 77-129 95-40 43-75 119-82 174-5 52 15 160 35 179 7 8 13 17 13 22 0 14 91 98 135 124 36 21 52 24 145 24 93-1 110-3 146-25 185-110 222-130 241-130 64 0 114 62 97 121-11 39-1 32-357 258-106 68-140 82-181 74-32-7-76-56-76-87 0-19-18-32-102-74-56-29-104-49-107-46s-6 49-6 102c1 106 10 133 71 208 40 50 103 89 176 108 72 20 105 19 169-3zM6719 1323c-94-34-135-60-197-123a405 405 0 01-105-349c19-112 63-183 168-271 31-26 106-55 171-66 131-23 251 14 349 108a414 414 0 0159 532c-25 37-39 51-95 95-77 61-114 73-230 77-58 1-112 0-120-3zm226-184c79-48 134-140 134-225 0-86-72-189-156-226a256 256 0 00-354 231c0 93 82 215 161 239 58 18 171 7 215-19zM1871 1307c-5-7-13-29-17-48s-14-47-21-62c-8-15-14-34-14-43 0-10-6-31-14-48-8-18-39-113-71-212-31-99-60-189-65-200-15-37-50-151-50-163 0-8 27-12 90-12h89l11 43c19 76 51 182 61 199a1514 1514 0 0067 226c15 43 16 43 28 20 7-12 16-41 20-63 3-22 10-44 14-50 4-5 13-30 18-55 21-86 44-165 52-175 4-5 11-29 15-52 4-24 11-45 16-49 5-3 9-14 9-25 0-17 8-19 90-19 101 0 102 1 74 75-8 22-20 56-25 75a38119 38119 0 00-121 362l-93 288h-76c-49 0-80-4-87-12zM2379 919V519h541l-3 78-3 77-188 3-188 2 3 78 3 77 125 5 125 5v150l-127 3-128 3v159h380v160h-540V919zM3039 919V519h160v640h400v160h-560V919zM3679 919V519h160v800h-160V919zM3986 1312c-4-3-7-184-7-401V517l178 4c167 3 180 5 234 30a402 402 0 01118 648c-95 95-171 120-371 120-80 0-149-3-152-7zm343-179c119-59 174-206 117-313-53-98-134-145-239-139l-53 3-3 225c-1 123 0 231 3 239 7 19 127 9 175-15zM4731 1027l3-293 27-45c35-58 91-112 148-142 38-19 59-23 140-23 81 1 102 5 140 25 48 26 140 113 140 133 0 7 8 26 17 42 15 26 18 69 21 313l4 283-84-3-83-3-3-77-3-78h-308l-3 78-3 77-78 3-78 3 3-293zm468-139c0-109-1-112-31-150-56-71-168-78-231-14-42 43-46 58-47 178l-1 97h310V888zM5659 999V679h-104c-57 0-111-3-120-6-13-5-16-22-16-80v-74h641l-3 78-3 77-117 3-118 3v639h-160V999zM6149 919V519h150v800h-150V919zM7339 919V519h88c97 0 89-5 141 90 13 25 36 63 50 85l36 61c5 12 44 78 85 148l75 127 3-255 2-256h160v800h-166l-149-254c-83-140-153-252-157-249-5 2-8 116-8 254v249h-160V919z"/>
</svg>
